<svg width="128" height="128" viewBox="0 0 128 128" fill="none" xmlns="http://www.w3.org/2000/svg">
<g clip-path="url(#clip0_365_541)">
<path d="M0 64C0 33.8301 0 18.7452 9.37258 9.37258C18.7452 0 33.8301 0 64 0C94.1699 0 109.255 0 118.627 9.37258C128 18.7452 128 33.8301 128 64C128 94.1699 128 109.255 118.627 118.627C109.255 128 94.1699 128 64 128C33.8301 128 18.7452 128 9.37258 118.627C0 109.255 0 94.1699 0 64Z" fill="url(#paint0_linear_365_541)"/>
<circle cx="64" cy="64" r="56" fill="url(#paint1_linear_365_541)"/>
<g filter="url(#filter0_ii_365_541)">
<circle cx="64.0003" cy="63.9994" r="53.3333" fill="#424E6F"/>
</g>
<g filter="url(#filter1_ii_365_541)">
<circle cx="64" cy="69.334" r="48" fill="url(#paint2_radial_365_541)"/>
</g>
<path d="M64 96L66.2101 87.168C67.4759 82.1032 70.0946 77.4776 73.7861 73.7861C77.4776 70.0946 82.1032 67.4759 87.168 66.2101L96 64L87.168 61.7899C82.1032 60.5241 77.4776 57.9054 73.7861 54.2139C70.0946 50.5224 67.4759 45.8968 66.2101 40.832L64 32L61.7899 40.832C60.5248 45.8958 57.9074 50.5206 54.2175 54.212C50.5275 57.9034 45.9038 60.5227 40.8405 61.7899L32 64L40.8405 66.2101C45.9038 67.4773 50.5275 70.0966 54.2175 73.788C57.9074 77.4794 60.5248 82.1042 61.7899 87.168L64 96Z" fill="url(#paint3_linear_365_541)"/>
</g>
<defs>
<filter id="filter0_ii_365_541" x="10.667" y="10.666" width="106.667" height="109.473" filterUnits="userSpaceOnUse" color-interpolation-filters="sRGB">
<feFlood flood-opacity="0" result="BackgroundImageFix"/>
<feBlend mode="normal" in="SourceGraphic" in2="BackgroundImageFix" result="shape"/>
<feColorMatrix in="SourceAlpha" type="matrix" values="0 0 0 0 0 0 0 0 0 0 0 0 0 0 0 0 0 0 127 0" result="hardAlpha"/>
<feMorphology radius="2.80702" operator="erode" in="SourceAlpha" result="effect1_innerShadow_365_541"/>
<feOffset dy="2.80702"/>
<feGaussianBlur stdDeviation="2.80702"/>
<feComposite in2="hardAlpha" operator="arithmetic" k2="-1" k3="1"/>
<feColorMatrix type="matrix" values="0 0 0 0 0 0 0 0 0 0 0 0 0 0 0 0 0 0 0.15 0"/>
<feBlend mode="normal" in2="shape" result="effect1_innerShadow_365_541"/>
<feColorMatrix in="SourceAlpha" type="matrix" values="0 0 0 0 0 0 0 0 0 0 0 0 0 0 0 0 0 0 127 0" result="hardAlpha"/>
<feMorphology radius="1.40351" operator="erode" in="SourceAlpha" result="effect2_innerShadow_365_541"/>
<feOffset dy="2.10526"/>
<feGaussianBlur stdDeviation="1.05263"/>
<feComposite in2="hardAlpha" operator="arithmetic" k2="-1" k3="1"/>
<feColorMatrix type="matrix" values="0 0 0 0 0 0 0 0 0 0 0 0 0 0 0 0 0 0 0.2 0"/>
<feBlend mode="normal" in2="effect1_innerShadow_365_541" result="effect2_innerShadow_365_541"/>
</filter>
<filter id="filter1_ii_365_541" x="16" y="21.334" width="96" height="98.4" filterUnits="userSpaceOnUse" color-interpolation-filters="sRGB">
<feFlood flood-opacity="0" result="BackgroundImageFix"/>
<feBlend mode="normal" in="SourceGraphic" in2="BackgroundImageFix" result="shape"/>
<feColorMatrix in="SourceAlpha" type="matrix" values="0 0 0 0 0 0 0 0 0 0 0 0 0 0 0 0 0 0 127 0" result="hardAlpha"/>
<feMorphology radius="3" operator="erode" in="SourceAlpha" result="effect1_innerShadow_365_541"/>
<feOffset dy="1.5"/>
<feGaussianBlur stdDeviation="3"/>
<feComposite in2="hardAlpha" operator="arithmetic" k2="-1" k3="1"/>
<feColorMatrix type="matrix" values="0 0 0 0 0 0 0 0 0 0 0 0 0 0 0 0 0 0 0.1 0"/>
<feBlend mode="normal" in2="shape" result="effect1_innerShadow_365_541"/>
<feColorMatrix in="SourceAlpha" type="matrix" values="0 0 0 0 0 0 0 0 0 0 0 0 0 0 0 0 0 0 127 0" result="hardAlpha"/>
<feMorphology radius="1.6" operator="erode" in="SourceAlpha" result="effect2_innerShadow_365_541"/>
<feOffset dy="2.4"/>
<feGaussianBlur stdDeviation="1.2"/>
<feComposite in2="hardAlpha" operator="arithmetic" k2="-1" k3="1"/>
<feColorMatrix type="matrix" values="0 0 0 0 0 0 0 0 0 0 0 0 0 0 0 0 0 0 0.15 0"/>
<feBlend mode="normal" in2="effect1_innerShadow_365_541" result="effect2_innerShadow_365_541"/>
</filter>
<linearGradient id="paint0_linear_365_541" x1="64" y1="0" x2="64" y2="128" gradientUnits="userSpaceOnUse">
<stop stop-color="#FFC090"/>
<stop offset="1" stop-color="#FF8000"/>
</linearGradient>
<linearGradient id="paint1_linear_365_541" x1="64" y1="-4" x2="64" y2="177.333" gradientUnits="userSpaceOnUse">
<stop stop-color="#B85C00"/>
<stop offset="0.275" stop-color="#FF9B37"/>
<stop offset="0.527574" stop-color="#FFC081"/>
<stop offset="0.753676" stop-color="#FFF3E7"/>
</linearGradient>
<radialGradient id="paint2_radial_365_541" cx="0" cy="0" r="1" gradientUnits="userSpaceOnUse" gradientTransform="translate(64 58.6673) rotate(90) scale(53.3333)">
<stop/>
<stop offset="1" stop-color="#25345C"/>
</radialGradient>
<linearGradient id="paint3_linear_365_541" x1="64" y1="32" x2="80" y2="96" gradientUnits="userSpaceOnUse">
<stop stop-color="white"/>
<stop offset="0.408654" stop-color="#2DA7FF"/>
<stop offset="1" stop-color="#1B6499"/>
</linearGradient>
<clipPath id="clip0_365_541">
<rect width="128" height="128" fill="white"/>
</clipPath>
</defs>
</svg>
