<svg width="882" height="128" viewBox="0 0 882 128" fill="none" xmlns="http://www.w3.org/2000/svg">
<g clip-path="url(#clip0_365_496)">
<g clip-path="url(#clip1_365_496)">
<path d="M0 64C0 33.8301 0 18.7452 9.37258 9.37258C18.7452 0 33.8301 0 64 0C94.1699 0 109.255 0 118.627 9.37258C128 18.7452 128 33.8301 128 64C128 94.1699 128 109.255 118.627 118.627C109.255 128 94.1699 128 64 128C33.8301 128 18.7452 128 9.37258 118.627C0 109.255 0 94.1699 0 64Z" fill="url(#paint0_linear_365_496)"/>
<circle cx="64" cy="64" r="56" fill="url(#paint1_linear_365_496)"/>
<g filter="url(#filter0_ii_365_496)">
<circle cx="64.0003" cy="64.0003" r="53.3333" fill="#424E6F"/>
</g>
<g filter="url(#filter1_ii_365_496)">
<circle cx="64" cy="69.333" r="48" fill="url(#paint2_radial_365_496)"/>
</g>
<path d="M64 96L66.2101 87.168C67.4759 82.1032 70.0946 77.4776 73.7861 73.7861C77.4776 70.0946 82.1032 67.4759 87.168 66.2101L96 64L87.168 61.7899C82.1032 60.5241 77.4776 57.9054 73.7861 54.2139C70.0946 50.5224 67.4759 45.8968 66.2101 40.832L64 32L61.7899 40.832C60.5248 45.8958 57.9074 50.5206 54.2175 54.212C50.5275 57.9034 45.9038 60.5227 40.8405 61.7899L32 64L40.8405 66.2101C45.9038 67.4773 50.5275 70.0966 54.2175 73.788C57.9074 77.4794 60.5248 82.1042 61.7899 87.168L64 96Z" fill="url(#paint3_linear_365_496)"/>
</g>
<path d="M193.473 27.3701C198.475 27.3701 202.753 28.2919 206.308 30.1348C209.862 31.9778 212.627 34.6443 214.602 38.1328C216.642 41.6213 217.827 45.8669 218.156 50.8691L203.938 51.5596C203.609 49.1244 202.984 47.0183 202.062 45.2412C201.141 43.4641 199.89 42.1149 198.311 41.1934C196.797 40.2719 194.987 39.8106 192.881 39.8105C190.051 39.8105 187.78 40.5353 186.068 41.9834C184.423 43.4315 183.6 45.406 183.6 47.9072C183.6 49.5526 183.994 50.9677 184.784 52.1523C185.64 53.3371 187.088 54.39 189.129 55.3115C191.235 56.233 194.099 57.1875 197.719 58.1748C203.05 59.4254 207.263 61.0709 210.356 63.1113C213.45 65.1518 215.654 67.5549 216.971 70.3193C218.287 73.0838 218.945 76.3092 218.945 79.9951C218.945 84.2075 217.958 87.8606 215.983 90.9541C214.009 93.9818 211.145 96.3512 207.394 98.0625C203.708 99.7737 199.265 100.63 194.065 100.63C188.734 100.63 184.192 99.6097 180.44 97.5693C176.689 95.5289 173.76 92.6325 171.653 88.8809C169.613 85.1291 168.395 80.6201 168 75.3545L182.119 74.6631C182.514 77.625 183.271 80.1265 184.39 82.167C185.509 84.2072 186.924 85.7207 188.635 86.708C190.346 87.6953 192.386 88.1894 194.756 88.1895C196.862 88.1895 198.64 87.8932 200.088 87.3008C201.602 86.7084 202.754 85.8523 203.544 84.7334C204.334 83.5487 204.729 82.1336 204.729 80.4883C204.729 78.7111 204.3 77.1313 203.444 75.749C202.589 74.3669 201.075 73.1159 198.903 71.9971C196.797 70.8782 193.802 69.8252 189.919 68.8379C185.246 67.6532 181.362 66.2382 178.269 64.5928C175.241 62.9472 173.003 60.8405 171.555 58.2734C170.107 55.7064 169.382 52.4811 169.382 48.5977C169.382 44.3195 170.304 40.6007 172.146 37.4414C174.055 34.2162 176.787 31.7475 180.342 30.0361C183.962 28.2591 188.339 27.3701 193.473 27.3701Z" fill="#303030"/>
<path d="M239.838 77.4277C239.838 81.5085 240.496 84.4377 241.812 86.2148C243.195 87.9919 245.17 88.8798 247.736 88.8799C250.435 88.8799 252.706 87.8598 254.549 85.8193C256.458 83.7789 257.412 80.7842 257.412 76.835V46.1299H270.741V99.0498H258.399L258.221 89.8848C257.236 92.3444 255.848 94.4125 254.056 96.0879C251.094 98.8524 247.243 100.234 242.504 100.234C237.567 100.234 233.651 98.5889 230.755 95.2979C227.859 91.941 226.411 87.103 226.411 80.7842V46.1299H239.838V77.4277Z" fill="#303030"/>
<path fill-rule="evenodd" clip-rule="evenodd" d="M357.351 44.9453C364.986 44.9453 370.58 46.8863 374.135 50.7695C377.755 54.5872 379.565 59.9521 379.565 66.8633V85.5234C379.565 86.8397 379.795 87.7615 380.256 88.2881C380.717 88.7488 381.408 88.9794 382.329 88.9795H384.502V99.0498C384.107 99.1156 383.449 99.1813 382.527 99.2471C381.606 99.3787 380.651 99.4443 379.664 99.4443C377.031 99.4443 374.793 98.984 372.95 98.0625C371.107 97.141 369.691 95.7918 368.704 94.0146C368.252 93.1431 367.896 92.1843 367.634 91.1387C367.197 92.1752 366.634 93.1674 365.94 94.1133C364.492 96.0221 362.551 97.5363 360.115 98.6553C357.68 99.7084 354.882 100.234 351.723 100.234C348.497 100.234 345.536 99.6418 342.837 98.457C340.138 97.2723 337.999 95.5611 336.419 93.3232C334.905 91.0854 334.148 88.4196 334.148 85.3262C334.148 80.8504 335.563 77.3616 338.394 74.8604C341.29 72.3591 345.24 70.5824 350.242 69.5293L366.138 66.0732C366.138 62.7165 365.447 60.1492 364.064 58.3721C362.748 56.5949 360.576 55.707 357.548 55.707C354.915 55.707 352.875 56.3652 351.427 57.6816C349.979 58.9981 349.024 60.742 348.563 62.9141L334.741 62.124C335.729 56.9242 338.196 52.7771 342.146 49.6836C346.161 46.5242 351.229 44.9453 357.351 44.9453ZM354.389 78.1191C352.019 78.6457 350.341 79.4024 349.354 80.3896C348.366 81.3769 347.872 82.7919 347.872 84.6348C347.872 86.3461 348.432 87.6953 349.551 88.6826C350.67 89.6699 352.315 90.1641 354.487 90.1641C356.988 90.164 359.094 89.7364 360.806 88.8809C362.517 87.9595 363.833 86.6428 364.755 84.9316C365.676 83.1545 366.138 81.0805 366.138 78.7109V75.5518L354.389 78.1191Z" fill="#303030"/>
<path fill-rule="evenodd" clip-rule="evenodd" d="M635.681 44.9453C640.551 44.9454 644.83 46.0967 648.516 48.4004C652.267 50.7041 655.196 53.9623 657.303 58.1748C659.409 62.3215 660.462 67.2252 660.462 72.8857V76.2432H624.523C624.853 80.1923 626.038 83.22 628.078 85.3262C630.184 87.3665 632.883 88.3867 636.174 88.3867C638.609 88.3867 640.683 87.827 642.395 86.708C644.105 85.5234 645.29 83.944 645.948 81.9697L659.376 82.8574C657.599 88.3864 654.703 92.6656 650.688 95.6934C646.738 98.721 641.802 100.234 635.878 100.234C630.941 100.234 626.564 99.1159 622.746 96.8779C618.994 94.5742 616.032 91.3488 613.86 87.2021C611.754 83.0554 610.701 78.1846 610.701 72.5898C610.701 67.1267 611.754 62.3215 613.86 58.1748C615.967 54.0281 618.896 50.8028 622.647 48.499C626.399 46.1295 630.744 44.9453 635.681 44.9453ZM635.582 56.793C632.554 56.793 630.086 57.681 628.177 59.458C626.334 61.1693 625.181 63.7037 624.721 67.0605H646.146C645.816 63.638 644.698 61.0707 642.789 59.3594C640.88 57.6482 638.478 56.7931 635.582 56.793Z" fill="#303030"/>
<path d="M319.477 44.9453C323.36 44.9454 326.223 46.3603 328.065 49.1904C329.908 51.9549 330.83 56.3317 330.83 62.3213V99.0498H318.291V64.9873C318.291 61.5646 317.962 59.2609 317.304 58.0762C316.711 56.8915 315.757 56.2988 314.44 56.2988C313.519 56.2989 312.697 56.5953 311.973 57.1875C311.314 57.7799 310.788 58.7344 310.393 60.0508C309.998 61.3013 309.801 62.9798 309.801 65.0859V99.0498H298.15V64.9873C298.15 61.6963 297.854 59.4254 297.262 58.1748C296.669 56.9243 295.682 56.2989 294.3 56.2988C293.378 56.2988 292.555 56.5951 291.831 57.1875C291.107 57.7799 290.547 58.7344 290.152 60.0508C289.823 61.3013 289.659 62.9798 289.659 65.0859V99.0498H277.12V46.1299H288.079L288.337 54.0537C289.1 51.6132 290.099 49.6628 291.338 48.2031C293.247 46.0311 295.616 44.9453 298.446 44.9453C301.737 44.9453 304.107 46.0639 305.555 48.3018C306.615 49.8234 307.432 51.9268 308.008 54.6113C308.818 52.0203 309.975 49.95 311.479 48.4004C313.651 46.0966 316.317 44.9453 319.477 44.9453Z" fill="#303030"/>
<path d="M415.287 56.4297C415.984 53.5406 417.094 51.2585 418.624 49.585C420.796 47.2812 423.956 46.1299 428.103 46.1299H439.95V57.0889H429.09C426.589 57.0889 424.516 57.5165 422.87 58.3721C421.225 59.2277 420.007 60.5113 419.217 62.2227C418.427 63.934 418.032 66.0736 418.032 68.6406V88.3867H434.125V99.0498H391.967V88.3867H404.604V56.792H391.967V46.1299H414.478L415.287 56.4297Z" fill="#303030"/>
<path d="M479.898 88.3867H496.584V99.0498H446.823V88.3867H466.471V56.793H447.811V46.1299H479.898V88.3867Z" fill="#303030"/>
<path d="M546.898 57.582L517.674 88.3867H547.787V99.0498H502.173V87.5967L531.397 56.792H503.16V46.1299H546.898V57.582Z" fill="#303030"/>
<path d="M602.149 57.582L572.925 88.3867H603.038V99.0498H557.425V87.5967L586.649 56.792H558.412V46.1299H602.149V57.582Z" fill="#303030"/>
<path d="M691.543 56.4297C692.239 53.5404 693.351 51.2585 694.881 49.585C697.053 47.2813 700.213 46.1299 704.359 46.1299H716.207V57.0889H705.347C702.845 57.0889 700.772 57.5164 699.126 58.3721C697.481 59.2277 696.263 60.5115 695.474 62.2227C694.684 63.934 694.288 66.0736 694.288 68.6406V88.3867H710.382V99.0498H668.224V88.3867H680.86V56.792H668.224V46.1299H690.734L691.543 56.4297Z" fill="#303030"/>
<path d="M746.795 56.4297C747.491 53.5406 748.602 51.2585 750.132 49.585C752.304 47.2812 755.464 46.1299 759.61 46.1299H771.458V57.0889H760.598C758.097 57.0889 756.023 57.5165 754.378 58.3721C752.732 59.2277 751.514 60.5113 750.725 62.2227C749.935 63.934 749.54 66.0736 749.54 68.6406V88.3867H765.633V99.0498H723.475V88.3867H736.112V56.792H723.475V46.1299H745.985L746.795 56.4297Z" fill="#303030"/>
<path d="M802.045 56.4307C802.741 53.541 803.853 51.2587 805.383 49.585C807.555 47.2812 810.715 46.1299 814.861 46.1299H826.709V57.0889H815.849C813.348 57.0889 811.274 57.5165 809.629 58.3721C807.983 59.2277 806.765 60.5113 805.976 62.2227C805.186 63.934 804.791 66.0736 804.791 68.6406V88.3867H820.884V99.0498H778.726V88.3867H791.363V56.792H778.726V46.1299H801.236L802.045 56.4307Z" fill="#303030"/>
<path d="M857.297 56.4297C857.993 53.5404 859.105 51.2585 860.635 49.585C862.807 47.2813 865.967 46.1299 870.113 46.1299H881.961V57.0889H871.102C868.6 57.0889 866.525 57.5164 864.88 58.3721C863.235 59.2277 862.018 60.5115 861.229 62.2227C860.439 63.934 860.042 66.0736 860.042 68.6406V88.3867H876.136V99.0498H833.979V88.3867H846.615V56.792H833.979V46.1299H856.488L857.297 56.4297Z" fill="#303030"/>
<path d="M479.701 39.6133H466.076V27.9629H479.701V39.6133Z" fill="#303030"/>
</g>
<defs>
<filter id="filter0_ii_365_496" x="10.667" y="10.667" width="106.667" height="109.474" filterUnits="userSpaceOnUse" color-interpolation-filters="sRGB">
<feFlood flood-opacity="0" result="BackgroundImageFix"/>
<feBlend mode="normal" in="SourceGraphic" in2="BackgroundImageFix" result="shape"/>
<feColorMatrix in="SourceAlpha" type="matrix" values="0 0 0 0 0 0 0 0 0 0 0 0 0 0 0 0 0 0 127 0" result="hardAlpha"/>
<feMorphology radius="2.80702" operator="erode" in="SourceAlpha" result="effect1_innerShadow_365_496"/>
<feOffset dy="2.80702"/>
<feGaussianBlur stdDeviation="2.80702"/>
<feComposite in2="hardAlpha" operator="arithmetic" k2="-1" k3="1"/>
<feColorMatrix type="matrix" values="0 0 0 0 0 0 0 0 0 0 0 0 0 0 0 0 0 0 0.15 0"/>
<feBlend mode="normal" in2="shape" result="effect1_innerShadow_365_496"/>
<feColorMatrix in="SourceAlpha" type="matrix" values="0 0 0 0 0 0 0 0 0 0 0 0 0 0 0 0 0 0 127 0" result="hardAlpha"/>
<feMorphology radius="1.40351" operator="erode" in="SourceAlpha" result="effect2_innerShadow_365_496"/>
<feOffset dy="2.10526"/>
<feGaussianBlur stdDeviation="1.05263"/>
<feComposite in2="hardAlpha" operator="arithmetic" k2="-1" k3="1"/>
<feColorMatrix type="matrix" values="0 0 0 0 0 0 0 0 0 0 0 0 0 0 0 0 0 0 0.2 0"/>
<feBlend mode="normal" in2="effect1_innerShadow_365_496" result="effect2_innerShadow_365_496"/>
</filter>
<filter id="filter1_ii_365_496" x="16" y="21.333" width="96" height="98.4" filterUnits="userSpaceOnUse" color-interpolation-filters="sRGB">
<feFlood flood-opacity="0" result="BackgroundImageFix"/>
<feBlend mode="normal" in="SourceGraphic" in2="BackgroundImageFix" result="shape"/>
<feColorMatrix in="SourceAlpha" type="matrix" values="0 0 0 0 0 0 0 0 0 0 0 0 0 0 0 0 0 0 127 0" result="hardAlpha"/>
<feMorphology radius="3" operator="erode" in="SourceAlpha" result="effect1_innerShadow_365_496"/>
<feOffset dy="1.5"/>
<feGaussianBlur stdDeviation="3"/>
<feComposite in2="hardAlpha" operator="arithmetic" k2="-1" k3="1"/>
<feColorMatrix type="matrix" values="0 0 0 0 0 0 0 0 0 0 0 0 0 0 0 0 0 0 0.1 0"/>
<feBlend mode="normal" in2="shape" result="effect1_innerShadow_365_496"/>
<feColorMatrix in="SourceAlpha" type="matrix" values="0 0 0 0 0 0 0 0 0 0 0 0 0 0 0 0 0 0 127 0" result="hardAlpha"/>
<feMorphology radius="1.6" operator="erode" in="SourceAlpha" result="effect2_innerShadow_365_496"/>
<feOffset dy="2.4"/>
<feGaussianBlur stdDeviation="1.2"/>
<feComposite in2="hardAlpha" operator="arithmetic" k2="-1" k3="1"/>
<feColorMatrix type="matrix" values="0 0 0 0 0 0 0 0 0 0 0 0 0 0 0 0 0 0 0.15 0"/>
<feBlend mode="normal" in2="effect1_innerShadow_365_496" result="effect2_innerShadow_365_496"/>
</filter>
<linearGradient id="paint0_linear_365_496" x1="64" y1="0" x2="64" y2="128" gradientUnits="userSpaceOnUse">
<stop stop-color="#FFC090"/>
<stop offset="1" stop-color="#FF8000"/>
</linearGradient>
<linearGradient id="paint1_linear_365_496" x1="64" y1="-4" x2="64" y2="177.333" gradientUnits="userSpaceOnUse">
<stop stop-color="#B85C00"/>
<stop offset="0.275" stop-color="#FF9B37"/>
<stop offset="0.527574" stop-color="#FFC081"/>
<stop offset="0.753676" stop-color="#FFF3E7"/>
</linearGradient>
<radialGradient id="paint2_radial_365_496" cx="0" cy="0" r="1" gradientUnits="userSpaceOnUse" gradientTransform="translate(64 58.6663) rotate(90) scale(53.3333)">
<stop/>
<stop offset="1" stop-color="#25345C"/>
</radialGradient>
<linearGradient id="paint3_linear_365_496" x1="64" y1="32" x2="80" y2="96" gradientUnits="userSpaceOnUse">
<stop stop-color="white"/>
<stop offset="0.408654" stop-color="#2DA7FF"/>
<stop offset="1" stop-color="#1B6499"/>
</linearGradient>
<clipPath id="clip0_365_496">
<rect width="882" height="128" fill="white"/>
</clipPath>
<clipPath id="clip1_365_496">
<rect width="128" height="128" fill="white"/>
</clipPath>
</defs>
</svg>
